<?xml version="1.0" standalone="no"?>
<!DOCTYPE svg PUBLIC "-//W3C//DTD SVG 20010904//EN"
 "http://www.w3.org/TR/2001/REC-SVG-20010904/DTD/svg10.dtd">
<svg version="1.0" xmlns="http://www.w3.org/2000/svg"
 width="1024.000000pt" height="1024.000000pt" viewBox="0 0 1024.000000 1024.000000"
 preserveAspectRatio="xMidYMid meet">

<g transform="translate(0.000000,1024.000000) scale(0.100000,-0.100000)"
fill="#000000" stroke="none">
<path d="M0 5120 l0 -5120 5120 0 5120 0 0 5120 0 5120 -5120 0 -5120 0 0
-5120z m8460 3057 c208 -70 333 -211 381 -428 19 -87 19 -148 17 -2681 l-3
-2593 -30 -59 c-54 -107 -226 -238 -350 -266 -66 -15 -6421 -14 -6500 1 -33 6
-64 12 -70 13 -5 1 -37 14 -70 29 -63 29 -160 115 -199 177 -39 60 -74 163
-87 251 -9 64 -11 663 -10 2578 l2 2494 29 86 c33 103 59 152 115 224 66 84
202 163 318 187 23 4 1473 7 3222 6 3063 -1 3182 -2 3235 -19z"/>
<path d="M3050 8040 l-1045 -5 -67 -33 c-77 -38 -170 -131 -201 -202 -20 -45
-20 -65 -22 -2510 -2 -2306 -1 -2470 16 -2535 23 -94 42 -137 86 -198 45 -62
104 -100 208 -135 l80 -27 3115 -1 c2597 -1 3126 1 3183 12 116 24 206 95 253
200 51 116 49 5 49 2618 0 2327 -1 2439 -18 2450 -12 8 -20 8 -25 0 -4 -5 -38
-25 -75 -43 -47 -22 -71 -40 -77 -57 -6 -14 -10 -86 -10 -160 0 -132 -18 -234
-41 -234 -5 0 -9 -5 -9 -11 0 -31 -98 -86 -165 -93 -33 -3 -1410 -8 -3060 -11
-2983 -5 -3087 -5 -3167 26 -41 17 -116 95 -123 132 -4 17 -12 38 -19 46 -7 9
-11 72 -11 186 1 167 1 172 27 217 34 56 88 105 147 131 46 20 57 20 1905 19
1849 -2 1858 -2 1891 18 18 11 38 33 44 49 14 31 10 104 -4 110 -6 2 -22 11
-36 22 -24 17 -71 18 -905 21 -483 2 -1349 1 -1924 -2z m2343 -1325 c238 -31
495 -136 686 -280 383 -289 599 -795 537 -1261 -43 -325 -170 -582 -410 -832
-52 -54 -86 -96 -80 -101 5 -5 54 -25 109 -46 514 -194 793 -506 881 -985 21
-115 31 -384 15 -395 -24 -14 -139 -15 -151 0 -6 8 -15 71 -20 140 -26 357
-113 579 -301 762 -178 173 -401 283 -776 383 -172 46 -164 37 -187 195 l-13
90 43 55 c50 64 86 141 104 223 12 51 17 60 46 72 108 45 197 197 210 360 9
96 -8 150 -60 199 l-41 40 0 195 c0 189 -1 199 -28 276 -43 121 -82 181 -176
275 -149 147 -319 212 -561 214 -257 2 -447 -76 -607 -248 -141 -151 -201
-363 -174 -608 l11 -98 -49 -47 c-65 -64 -78 -108 -62 -220 23 -164 104 -296
208 -340 22 -9 35 -22 39 -41 23 -106 55 -177 114 -251 l41 -52 -11 -96 c-13
-104 -21 -133 -41 -150 -8 -6 -82 -29 -165 -52 -191 -51 -302 -90 -430 -151
-218 -102 -387 -252 -488 -433 -72 -129 -127 -353 -141 -574 -8 -126 -2 -117
-96 -128 -46 -6 -59 -4 -74 11 -16 16 -17 31 -11 149 9 169 28 286 67 410 123
391 387 650 837 821 63 23 117 45 119 48 3 3 -41 54 -98 114 -157 163 -251
311 -323 505 -110 294 -114 611 -11 910 142 418 473 746 891 882 213 70 407
89 627 60z m-2126 -115 c34 -20 51 -58 36 -83 -8 -15 -430 -451 -753 -779
-177 -180 -191 -188 -235 -143 -47 46 -36 75 67 183 260 273 828 842 840 842
7 0 28 -9 45 -20z m-695 -167 c98 -98 178 -183 178 -190 0 -17 -27 -48 -69
-80 l-33 -26 -170 169 c-93 93 -176 182 -184 197 -18 34 -11 60 23 87 52 40
64 33 255 -157z m5319 138 c17 -21 20 -36 17 -80 -6 -67 -30 -91 -93 -91 -36
0 -48 5 -69 31 -30 35 -34 84 -11 129 27 53 118 59 156 11z m-587 4 c21 -19
26 -33 26 -70 0 -38 -5 -52 -29 -76 -81 -80 -212 14 -160 114 24 46 41 57 89
57 36 0 53 -6 74 -25z m771 -395 c13 -14 27 -39 31 -57 5 -27 2 -37 -24 -63
l-30 -30 -535 0 -535 0 -27 32 c-22 26 -26 39 -21 66 6 40 29 69 60 75 11 3
254 4 538 3 l518 -1 25 -25z m-4949 -310 c98 -99 181 -185 186 -192 28 -45 -9
-108 -65 -108 -30 0 -52 19 -212 180 -98 99 -183 186 -187 194 -6 11 4 28 35
61 24 25 48 45 54 45 6 0 91 -81 189 -180z m-257 -456 c46 -58 9 -124 -70
-124 -78 0 -120 79 -69 130 15 15 33 20 69 20 42 0 53 -4 70 -26z m4739 -20
c32 -37 31 -116 -3 -149 -35 -36 -106 -35 -139 0 -31 34 -39 78 -21 121 27 65
117 81 163 28z m-4168 -289 c43 -22 65 -69 49 -106 -24 -60 -17 -59 -606 -59
-590 0 -567 -2 -593 60 -16 38 1 84 39 105 40 22 1069 22 1111 0z m4601 -5
c42 -12 64 -51 53 -95 -13 -54 -24 -55 -589 -55 l-516 0 -24 25 c-25 24 -31
57 -19 90 16 42 45 44 564 45 304 0 509 -4 531 -10z m-433 -296 c32 -37 31
-116 -3 -149 -35 -36 -106 -35 -139 0 -34 37 -40 79 -16 125 32 64 112 76 158
24z m-5194 -114 c28 -27 24 -80 -9 -107 -32 -28 -65 -29 -92 -3 -30 27 -37 56
-23 90 20 49 83 59 124 20z m583 8 c30 -29 32 -87 2 -114 -19 -17 -38 -19
-205 -19 -170 0 -185 1 -203 20 -32 33 -31 85 1 115 20 19 34 20 202 20 171 0
181 -1 203 -22z m588 -60 c46 -21 34 -55 -50 -138 -41 -41 -75 -80 -75 -86 0
-6 36 -41 80 -78 44 -37 80 -73 80 -80 0 -8 -8 -24 -18 -36 -26 -32 -47 -22
-150 68 -104 91 -126 117 -115 136 11 18 209 226 216 226 4 0 18 -5 32 -12z
m3432 -129 c94 -93 111 -115 103 -130 -16 -29 -208 -188 -237 -195 -20 -5 -31
-2 -45 16 -10 12 -18 25 -18 29 0 12 32 42 103 100 37 30 67 58 67 61 0 4 -38
44 -85 88 -47 45 -85 86 -85 92 0 29 22 50 53 50 27 0 48 -16 144 -111z m1131
95 c27 -18 31 -84 6 -108 -24 -25 -90 -21 -108 6 -50 71 31 152 102 102z
m-5527 -563 c26 -31 24 -54 -7 -90 l-26 -31 -113 0 c-126 0 -159 9 -181 52
-17 32 -8 57 29 83 18 13 45 16 150 13 121 -3 130 -4 148 -27z"/>
<path d="M6744 7600 c-11 -4 -36 -24 -56 -43 -58 -56 -63 -140 -12 -208 33
-46 60 -58 122 -59 62 0 97 16 135 61 23 28 27 42 27 92 0 32 -5 67 -10 77
-16 30 -60 70 -87 81 -29 11 -90 11 -119 -1z"/>
<path d="M7265 7600 c-11 -4 -30 -10 -41 -14 -30 -11 -74 -95 -74 -142 0 -40
26 -94 63 -129 15 -14 39 -20 84 -23 59 -4 66 -2 106 29 24 18 49 44 55 58 17
37 15 93 -7 143 -16 37 -27 48 -69 66 -52 23 -82 26 -117 12z"/>
<path d="M7755 7598 c-63 -22 -115 -120 -99 -186 11 -43 51 -94 85 -109 17 -7
56 -13 85 -13 50 0 58 4 99 41 48 45 60 78 51 143 -5 30 -18 54 -42 80 -50 53
-109 68 -179 44z"/>
</g>
</svg>
